<?xml version="1.0" encoding="UTF-8"?><!DOCTYPE svg PUBLIC "-//W3C//DTD SVG 1.1//EN" "http://www.w3.org/Graphics/SVG/1.1/DTD/svg11.dtd"><svg xmlns="http://www.w3.org/2000/svg" xmlns:xlink="http://www.w3.org/1999/xlink"><defs>
        <path id="a" d="M5 4h379v380.9H5z"/>
    </defs><symbol id="icon-check" viewBox="0 0 18.8 14.1">
    <path d="M6.4 13.4c-.3 0-.5-.1-.7-.3l-5-5c-.4-.4-.4-1 0-1.4s1-.4 1.4 0L6.4 11 16.7.7c.4-.4 1-.4 1.4 0s.4 1 0 1.4l-11 11c-.2.2-.4.3-.7.3z"/>
</symbol><symbol id="icon-diploma" viewBox="0 0 396 424">
    <path d="M239.105 152.203a6.828 6.828 0 0 0 6.829 6.828h68.265a6.824 6.824 0 0 0 6.828-6.828 6.825 6.825 0 0 0-6.828-6.828h-68.265a6.828 6.828 0 0 0-6.829 6.828zm0 0"/>
    <path d="M280.066 193.164a6.824 6.824 0 0 0 6.829 6.824h40.96a6.823 6.823 0 0 0 6.825-6.824 6.825 6.825 0 0 0-6.825-6.828h-40.96a6.826 6.826 0 0 0-6.829 6.828zm0 0"/>
    <path d="M273.238 118.07a6.824 6.824 0 0 0 6.828-6.828 6.824 6.824 0 0 0-6.828-6.824h-13.652a6.823 6.823 0 0 0-6.824 6.824c0 3.77 3.05 6.828 6.824 6.828h13.652zm0 0"/>
    <path d="M191.32 186.336a6.825 6.825 0 0 0-6.828 6.828 6.824 6.824 0 0 0 6.828 6.824h68.266a6.824 6.824 0 0 0 6.828-6.824 6.825 6.825 0 0 0-6.828-6.828H191.32zm0 0"/>
    <path d="M225.453 377.484H95.746c-11.289 0-20.48-9.191-20.48-20.48V42.977a6.825 6.825 0 0 0-6.825-6.829c-18.82 0-34.132 15.313-34.132 34.133 0 3.77 3.05 6.828 6.824 6.828a6.825 6.825 0 0 0 6.828-6.828c0-8.902 5.707-16.492 13.652-19.312v306.035c0 18.82 15.313 34.133 34.133 34.133h129.707a6.825 6.825 0 0 0 6.828-6.828 6.825 6.825 0 0 0-6.828-6.825zm0 0"/>
    <path d="M123.055 159.031h95.574a6.824 6.824 0 0 0 6.824-6.828 6.825 6.825 0 0 0-6.824-6.828h-95.574a6.825 6.825 0 0 0-6.828 6.828c0 3.77 3.05 6.828 6.828 6.828zm0 0"/>
    <path d="M123.055 118.07h27.304a6.825 6.825 0 0 0 6.829-6.828 6.825 6.825 0 0 0-6.829-6.824h-27.304a6.824 6.824 0 0 0-6.828 6.824c0 3.77 3.05 6.828 6.828 6.828zm0 0"/>
    <path d="M232.281 104.414h-54.613a6.825 6.825 0 0 0-6.828 6.828 6.825 6.825 0 0 0 6.828 6.828h54.613a6.823 6.823 0 0 0 6.824-6.828 6.824 6.824 0 0 0-6.824-6.828zm0 0"/>
    <path d="M327.855 9H68.441C34.641 9 7.129 36.437 7 70.199v.324c.09 21.77 11.836 42.051 30.711 52.973a6.834 6.834 0 0 0 9.328-2.484c1.895-3.262.77-7.442-2.484-9.325-14.719-8.527-23.875-24.351-23.903-41.328.051-26.312 21.465-47.707 47.789-47.707h259.414c26.344 0 47.786 21.438 47.786 47.789V357.16c0 3.461-.969 6.938-2.793 10.035-1.907 3.25-.825 7.434 2.422 9.344a6.766 6.766 0 0 0 3.457.945 6.817 6.817 0 0 0 5.89-3.367c3.059-5.195 4.676-11.058 4.676-16.957V70.441C389.293 36.559 361.734 9 327.855 9zm0 0"/>
    <path d="M348.332 322.871c0-22.59-18.367-40.961-40.957-40.961s-40.961 18.371-40.961 40.961 18.371 40.957 40.961 40.957 40.957-18.367 40.957-40.957zm-40.957 27.305c-15.063 0-27.309-12.246-27.309-27.305 0-15.062 12.246-27.309 27.309-27.309 15.059 0 27.305 12.247 27.305 27.309 0 15.059-12.246 27.305-27.305 27.305zm0 0"/>
    <path d="M295.051 370.664c-3.254-1.887-7.434-.766-9.324 2.496l-14.7 25.473-2.332-3.524a6.785 6.785 0 0 0-5.285-3.05l-4.219-.254 14.942-25.871a6.832 6.832 0 0 0-2.496-9.329c-3.266-1.89-7.442-.769-9.332 2.5l-20.461 35.438a6.834 6.834 0 0 0-.094 6.648 6.804 6.804 0 0 0 5.605 3.579l11.829.707 6.535 9.894a6.811 6.811 0 0 0 5.691 3.063h.211a6.857 6.857 0 0 0 5.707-3.411l20.231-35.035a6.828 6.828 0 0 0-2.508-9.324zm0 0"/>
    <path d="M352.621 359.426c-1.891-3.27-6.078-4.391-9.324-2.496a6.826 6.826 0 0 0-2.508 9.324l14.766 25.551-4.219.254a6.846 6.846 0 0 0-5.289 3.05l-2.32 3.524-14.625-25.344c-1.895-3.262-6.075-4.383-9.332-2.496-3.262 1.883-4.379 6.062-2.497 9.324l20.153 34.906a6.867 6.867 0 0 0 5.707 3.414h.211a6.845 6.845 0 0 0 5.699-3.066l6.527-9.883 11.825-.718a6.815 6.815 0 0 0 5.605-3.579 6.845 6.845 0 0 0-.098-6.648l-20.281-35.117zm0 0"/>
    <path d="M123.055 199.988h40.957a6.824 6.824 0 0 0 6.828-6.824 6.825 6.825 0 0 0-6.828-6.828h-40.957a6.825 6.825 0 0 0-6.828 6.828 6.823 6.823 0 0 0 6.828 6.824zm0 0"/>
    <path d="M123.055 240.949h81.918a6.824 6.824 0 0 0 6.828-6.824 6.825 6.825 0 0 0-6.828-6.828h-81.918a6.824 6.824 0 0 0-6.828 6.828 6.823 6.823 0 0 0 6.828 6.824zm0 0"/>
    <path d="M123.777 325.922c1.68 3.371 5.782 4.738 9.153 3.058a6.82 6.82 0 0 0 3.05-9.164c-6.757-13.515-8.273-25.64-4.066-32.445 2.238-3.625 6.145-5.461 11.617-5.461 3.258 0 4.473 1.117 5.239 2.211 5.085 7.332.253 29.66-4.805 43.18a6.828 6.828 0 0 0 2.703 8.136 6.85 6.85 0 0 0 8.52-.914 161.434 161.434 0 0 1 8.824-8.164v3.336a6.81 6.81 0 0 0 4.215 6.301 6.818 6.818 0 0 0 7.441-1.473c3.117-3.113 6.734-6.164 9.781-8.363-.082.172-.164.336-.246.492a6.841 6.841 0 0 0 6.117 9.871h27.305a6.825 6.825 0 0 0 6.828-6.828 6.825 6.825 0 0 0-6.828-6.824h-17.77c.555-3.25.418-6.555-1.226-9.219-1.742-2.816-4.774-4.437-8.309-4.437-4.218 0-9.183 2.566-13.715 5.75-.347-2.977-2.109-5.43-4.785-6.535-1.824-.75-4.172-1.731-9.871 1.687 2.246-11.762 2.903-25.32-2.957-33.769-2.558-3.696-7.488-8.09-16.457-8.09-10.226 0-18.48 4.238-23.238 11.937-6.809 11.02-5.543 27.684 3.48 45.727zm0 0"/>
    <path d="M307.375 234.125a6.825 6.825 0 0 0-6.828-6.828h-68.266a6.825 6.825 0 0 0-6.828 6.828 6.824 6.824 0 0 0 6.828 6.824h68.266a6.824 6.824 0 0 0 6.828-6.824zm0 0"/>
</symbol><symbol id="icon-domain" viewBox="0 0 376 340">
    <path d="M370 0H6C2.7 0 0 2.7 0 6v328c0 3.3 2.7 6 6 6h364c3.3 0 6-2.7 6-6v-64c0-3.3-2.7-6-6-6s-6 2.7-6 6v58H12V60h352v186c0 3.3 2.7 6 6 6s6-2.7 6-6V6c0-3.3-2.7-6-6-6zM12 12h222v36H12V12zm234 36V12h118v36H246zm0 0"/>
    <path d="M305.2 23.6c-3.5 0-6.4 2.9-6.4 6.4s2.9 6.4 6.4 6.4c3.5 0 6.4-2.9 6.4-6.4s-2.9-6.4-6.4-6.4zm0 0"/>
    <path d="M272.4 23.6c-3.5 0-6.4 2.9-6.4 6.4s2.9 6.4 6.4 6.4c3.5 0 6.4-2.9 6.4-6.4s-2.9-6.4-6.4-6.4zm0 0"/>
    <path d="M338 23.6c-3.5 0-6.4 2.9-6.4 6.4s2.9 6.4 6.4 6.4c3.5 0 6.4-2.9 6.4-6.4s-2.9-6.4-6.4-6.4zm0 0"/>
    <path d="M119 162.8c2.4-.3 4.3-2 5-4.2l13.8-46.1c.9-3.2-.9-6.5-4-7.5-3.2-1-6.5.9-7.5 4l-9.9 33-9.5-15.9c-1.1-1.8-3-2.9-5.1-2.9-2.1 0-4.1 1.1-5.1 2.9l-9.7 16-9.9-33c-.9-3.2-4.3-5-7.5-4s-5 4.3-4 7.5l13.8 46.1c.7 2.3 2.6 3.9 5 4.2h.7c2.1 0 4.1-1.1 5.1-2.9l11.4-19 11.4 19c1.3 2 3.6 3.1 6 2.8zm0 0"/>
    <path d="M165.1 162.8h.7c2.1 0 4.1-1.1 5.1-2.9l11.4-19 11.4 19c1.2 2 3.5 3.2 5.9 2.9 2.4-.3 4.3-2 5-4.2l13.8-46.1c1-3.2-.8-6.5-4-7.5-3.2-.9-6.5.9-7.5 4l-9.9 33-9.5-15.9c-1.1-1.8-3-2.9-5.1-2.9-2.1 0-4.1 1.1-5.1 2.9l-9.5 15.9-9.9-33c-.9-3.2-4.3-5-7.5-4-3.2.9-5 4.3-4 7.5l13.8 46.1c.6 2.2 2.5 3.9 4.9 4.2zm0 0"/>
    <path d="M295.1 105c-3.2-.9-6.5.9-7.5 4l-9.9 33-9.5-15.9c-1.1-1.8-3-2.9-5.1-2.9-2.1 0-4.1 1.1-5.1 2.9l-9.5 15.9-9.9-33c-.9-3.2-4.3-5-7.5-4s-5 4.3-4 7.5l13.8 46.1c.7 2.3 2.6 3.9 5 4.2 2.4.3 4.7-.8 5.9-2.9l11.4-19 11.4 19c1.1 1.8 3.1 2.9 5.1 2.9h.7c2.4-.3 4.3-2 5-4.2l13.8-46.1c.9-3.2-.9-6.5-4.1-7.5zm0 0"/>
    <path d="M109.4 196.8c0-3.3-2.7-6-6-6h-32c-3.3 0-6 2.7-6 6v32c0 3.3 2.7 6 6 6h32c3.3 0 6-2.7 6-6v-32zm-12 26h-20v-20h20v20zm0 0"/>
    <path d="M103.4 246.8h-32c-3.3 0-6 2.7-6 6v32c0 3.3 2.7 6 6 6h32c3.3 0 6-2.7 6-6v-32c0-3.3-2.7-6-6-6zm-6 32h-20v-20h20v20zm0 0"/>
    <path d="M293.4 206.8h-24c-3.3 0-6 2.7-6 6s2.7 6 6 6h24c3.3 0 6-2.7 6-6s-2.7-6-6-6zm0 0"/>
    <path d="M245.4 206.8h-118c-3.3 0-6 2.7-6 6s2.7 6 6 6h118c3.3 0 6-2.7 6-6s-2.7-6-6-6zm0 0"/>
    <path d="M293.4 262.8h-24c-3.3 0-6 2.7-6 6s2.7 6 6 6h24c3.3 0 6-2.7 6-6s-2.7-6-6-6zm0 0"/>
    <path d="M245.4 262.8h-118c-3.3 0-6 2.7-6 6s2.7 6 6 6h118c3.3 0 6-2.7 6-6s-2.7-6-6-6zm0 0"/>
</symbol><symbol id="icon-facebook" viewBox="0 0 10 19">
    <title>
        facebook
    </title>
    <path d="M9.766.157v2.946H8.014c-.64 0-1.071.134-1.295.402-.223.268-.335.67-.335 1.205v2.11h3.27l-.435 3.303H6.384v8.471H2.97v-8.47H.123V6.82H2.97V4.387c0-1.384.387-2.457 1.161-3.22C4.904.404 5.934.023 7.222.023c1.093 0 1.941.045 2.544.134z" fill-rule="evenodd"/>
</symbol><symbol id="icon-file" viewBox="11 137 392 520">
    <path d="M398.933 244.629c-.034-3.076-1.224-6.09-3.485-8.352l-91.765-91.765-.011-.008a11.942 11.942 0 0 0-8.466-3.503H40.278c-13.917 0-25.237 11.32-25.237 25.237v461.525c0 13.916 11.32 25.237 25.237 25.237h333.444c13.916 0 25.237-11.32 25.237-25.237v-383.01c.001-.044-.022-.081-.026-.124zm-90.476-11.864a1.265 1.265 0 0 1-1.262-1.262v-49.572l50.834 50.834h-49.572zm65.265 396.259H40.278a1.263 1.263 0 0 1-1.261-1.261V166.237c0-.695.566-1.261 1.261-1.261h242.94v66.527c0 13.916 11.322 25.239 25.239 25.239h66.527v371.021a1.264 1.264 0 0 1-1.262 1.261z"/>
    <path d="M313.088 305.014H100.912c-6.62 0-11.988 5.367-11.988 11.988 0 6.62 5.368 11.988 11.988 11.988h212.175c6.62 0 11.988-5.368 11.988-11.988.001-6.621-5.368-11.988-11.987-11.988z"/>
    <path d="M313.088 377.353H100.912c-6.62 0-11.988 5.368-11.988 11.988 0 6.62 5.368 11.988 11.988 11.988h212.175c6.62 0 11.988-5.368 11.988-11.988.001-6.62-5.368-11.988-11.987-11.988z"/>
    <path d="M313.088 449.691H100.912c-6.62 0-11.988 5.368-11.988 11.988 0 6.621 5.368 11.988 11.988 11.988h212.175c6.62 0 11.988-5.367 11.988-11.988.001-6.619-5.368-11.988-11.987-11.988z"/>
    <path d="M207 522.031H100.912c-6.62 0-11.988 5.368-11.988 11.988 0 6.621 5.368 11.988 11.988 11.988H207c6.62 0 11.988-5.367 11.988-11.988 0-6.621-5.368-11.988-11.988-11.988z"/>
</symbol><symbol id="icon-letter" viewBox="0 0 189.5 127.8">
    <path d="M94.7 89.9c-.8 0-1.5-.3-2.1-.8L26.2 30.6c-.6-.6-1-1.3-1.1-2.2-.1-.8.2-1.7.8-2.3.6-.7 1.5-1.1 2.4-1.1.8 0 1.5.3 2.1.8l64.3 56.7L159 25.9c.6-.5 1.3-.8 2.1-.8.9 0 1.8.4 2.4 1.1 1.2 1.3 1 3.3-.3 4.5L96.8 89.2c-.6.5-1.3.7-2.1.7z"/>
    <path d="M16.3 126.6c-8.4 0-15.2-6.8-15.2-15.2V16.3c0-8.4 6.8-15.2 15.2-15.2h156.8c8.4 0 15.2 6.8 15.2 15.2v95.2c0 8.4-6.8 15.2-15.2 15.2H16.3zm0-119.2c-4.9 0-8.8 4-8.8 8.8v95.2c0 4.9 4 8.8 8.8 8.8h156.8c4.9 0 8.8-4 8.8-8.8V16.3c0-4.9-4-8.8-8.8-8.8H16.3z"/>
</symbol><symbol id="icon-loc" viewBox="0 0 162 240">
    <path d="M80.3 0C38.2 0 4 34.2 4 76.3c0 37.6 26.1 87 48 121.8 1.4 2.2 4.4 2.9 6.6 1.5 2.2-1.4 2.9-4.4 1.5-6.6-38.4-61.1-46.5-97.1-46.5-116.7 0-36.8 29.9-66.7 66.7-66.7 36.8 0 66.7 29.9 66.7 66.7 0 59.8-69.8 150.9-70.5 151.8-1.6 2.1-1.2 5.1.9 6.7.9.7 1.9 1 2.9 1 1.4 0 2.9-.6 3.8-1.9 3-3.8 72.5-94.6 72.5-157.7.1-42-34.2-76.2-76.3-76.2zm0 0"/>
    <path d="M80.3 52c2.7 0 4.8-2.1 4.8-4.8 0-2.6-2.1-4.8-4.8-4.8-18.7 0-33.9 15.2-33.9 33.9s15.2 33.9 33.9 33.9 33.9-15.2 33.9-33.9c0-7.5-2.4-14.6-6.9-20.5a4.78 4.78 0 1 0-7.6 5.8c3.2 4.3 4.9 9.3 4.9 14.7 0 13.4-10.9 24.3-24.3 24.3-13.4.1-24.3-10.8-24.3-24.3C56 62.9 66.9 52 80.3 52zm0 0"/>
</symbol><symbol id="icon-phone" viewBox="0 0 390 392">
    
    <clipPath id="b">
        <use xlink:href="#a" overflow="visible"/>
    </clipPath>
    <path clip-path="url(#b)" d="M304.3 239.7c-7.8-8.1-17.1-12.4-27-12.4-9.8 0-19.3 4.2-27.4 12.3l-25.3 25.2c-2.1-1.1-4.2-2.2-6.2-3.2-2.9-1.4-5.6-2.8-7.9-4.2-23.7-15-45.2-34.6-65.8-60-10-12.6-16.7-23.3-21.6-34.1 6.6-6 12.6-12.2 18.6-18.2 2.2-2.2 4.5-4.6 6.7-6.8 16.8-16.8 16.8-38.6 0-55.4L126.5 61c-2.5-2.5-5-5-7.4-7.6-4.8-5-9.8-10.1-15-14.9-7.8-7.7-17-11.8-26.8-11.8s-19.2 4.1-27.2 11.8l-.2.2-27.2 27.5C12.4 76.4 6.6 88.9 5.3 103.4c-1.9 23.4 5 45.1 10.2 59.4 13 35 32.3 67.4 61.2 102.1 35 41.8 77.2 74.9 125.4 98.2 18.4 8.7 43 19 70.4 20.8 1.7.1 3.4.2 5 .2 18.5 0 34-6.6 46.2-19.8.1-.2.2-.2.3-.4 4.2-5 9-9.6 14-14.5 3.4-3.3 7-6.7 10.4-10.3 7.9-8.2 12.1-17.8 12.1-27.7 0-9.9-4.2-19.4-12.3-27.4l-43.9-44.3zm28.6 84.2c-.1 0-.1.1 0 0-3.1 3.4-6.3 6.4-9.8 9.8-5.2 5-10.5 10.2-15.4 16-8.1 8.6-17.6 12.7-30.1 12.7-1.2 0-2.5 0-3.7-.1-23.8-1.5-45.8-10.8-62.4-18.7-45.3-21.9-85-53-118.1-92.5-27.3-32.9-45.5-63.3-57.6-95.9-7.4-19.9-10.2-35.4-9-50.1.8-9.4 4.4-17.1 11-23.8L65.1 54c3.9-3.7 8.1-5.7 12.2-5.7 5 0 9.1 3 11.7 5.6l.2.2c4.9 4.6 9.5 9.3 14.4 14.3 2.5 2.6 5 5.1 7.6 7.8L133 98c8.5 8.5 8.5 16.3 0 24.8l-6.9 6.9c-6.7 6.9-13.1 13.3-20.1 19.5-.2.2-.3.2-.4.4-6.9 6.9-5.6 13.6-4.2 18.2l.2.7c5.7 13.8 13.7 26.7 25.8 42.2l.1.1c22.1 27.2 45.4 48.4 71 64.6 3.3 2.1 6.6 3.8 9.8 5.4 2.9 1.4 5.6 2.8 7.9 4.2.3.2.6.4 1 .6 2.7 1.4 5.3 2 7.9 2 6.6 0 10.8-4.2 12.2-5.5l27.4-27.4c2.7-2.7 7-6 12.1-6 5 0 9 3.1 11.5 5.8l44.2 44.2c8.6 8.3 8.6 16.7.4 25.2zm0 0"/>
    <path clip-path="url(#b)" d="M209.6 95c21 3.5 40 13.4 55.2 28.6 15.2 15.2 25 34.2 28.6 55.2.9 5.3 5.4 9 10.6 9 .6 0 1.2-.1 1.8-.2 5.9-1 9.8-6.6 8.9-12.5-4.3-25.4-16.3-48.5-34.6-66.8C261.8 90 238.7 78 213.3 73.7c-5.9-1-11.4 3-12.5 8.8-1 5.9 2.8 11.6 8.8 12.5zm0 0"/>
    <path clip-path="url(#b)" d="M383.3 172.1c-7.1-41.8-26.8-79.8-57-110-30.2-30.2-68.2-49.9-110-57-5.8-1-11.4 3-12.4 8.8-1 5.9 3 11.4 8.9 12.5 37.3 6.3 71.3 24 98.3 51s44.6 61 51 98.3c.9 5.3 5.4 9 10.6 9 .6 0 1.2-.1 1.8-.2 5.9-1 9.9-6.6 8.8-12.4zm0 0"/>
</symbol></svg>